<svg xmlns="http://www.w3.org/2000/svg" viewBox="0 0 128 128" role="img" aria-label="PureGym Hub"><defs><radialGradient id="bg" cx="38%" cy="28%" r="80%"><stop stop-color="#12313a"/><stop offset="1" stop-color="#061018"/></radialGradient><linearGradient id="teal" x1="0" x2="1" y1="0" y2="1"><stop stop-color="#39d7d3"/><stop offset="1" stop-color="#058f9f"/></linearGradient><filter id="soft" x="-30%" y="-30%" width="160%" height="160%"><feDropShadow dx="0" dy="6" stdDeviation="8" flood-color="#18c9c7" flood-opacity=".22"/></filter></defs><rect width="128" height="128" rx="32" fill="url(#bg)"/><path d="M42 89V50c0-13 11-23 25-23h12" fill="none" stroke="#fff" stroke-width="12" stroke-linecap="round"/><path d="M42 89c0 11 13 13 18 2l7-17c4-10 12-13 23-16 9-2 15-10 15-20" fill="none" stroke="#fff" stroke-width="12" stroke-linecap="round"/><circle cx="78" cy="91" r="15" fill="url(#teal)" filter="url(#soft)"/><circle cx="91" cy="37" r="6" fill="url(#teal)"/><circle cx="103" cy="31" r="10" fill="url(#teal)"/><circle cx="108" cy="51" r="15" fill="url(#teal)"/><circle cx="92" cy="56" r="7" fill="url(#teal)"/><circle cx="100" cy="70" r="9" fill="url(#teal)"/><circle cx="82" cy="48" r="5" fill="url(#teal)"/><circle cx="76" cy="57" r="4" fill="url(#teal)"/></svg>