<svg width="256" height="256" viewBox="0 0 256 256" fill="none" xmlns="http://www.w3.org/2000/svg">
  <rect width="256" height="256" rx="58" fill="url(#bg)"/>
  <path d="M76 188V72C76 48 95 30 120 30H137C164 30 183 50 183 76C183 102 164 122 137 122H105" stroke="white" stroke-width="18" stroke-linecap="round" stroke-linejoin="round"/>
  <path d="M76 188C76 152 104 126 141 126H154" stroke="white" stroke-width="18" stroke-linecap="round" stroke-linejoin="round"/>
  <circle cx="171" cy="178" r="22" fill="#4DB6BD"/>
  <circle cx="194" cy="72" r="9" fill="#00A651"/>
  <circle cx="211" cy="92" r="6" fill="#8CC63F"/>
  <circle cx="199" cy="112" r="5" fill="#00A651"/>
  <circle cx="219" cy="124" r="8" fill="#8CC63F"/>
  <circle cx="37" cy="186" r="5" fill="#00A651" opacity=".9"/>
  <circle cx="50" cy="202" r="7" fill="#8CC63F" opacity=".9"/>
  <defs>
    <linearGradient id="bg" x1="38" y1="24" x2="218" y2="230" gradientUnits="userSpaceOnUse">
      <stop stop-color="#00A651"/>
      <stop offset=".58" stop-color="#0796A8"/>
      <stop offset="1" stop-color="#0876D8"/>
    </linearGradient>
  </defs>
</svg>
